<svg xmlns="http://www.w3.org/2000/svg" xmlns:xlink="http://www.w3.org/1999/xlink" width="500" zoomAndPan="magnify" viewBox="0 0 375 374.999991" height="500" preserveAspectRatio="xMidYMid meet" version="1.0"><defs><g/><clipPath id="5daf696128"><path d="M 77 66 L 298 66 L 298 286 L 77 286 Z M 77 66 " clip-rule="nonzero"/></clipPath><clipPath id="8f52af09ec"><path d="M 70.4375 100.351562 L 70.4375 251.972656 C 70.4375 274.753906 88.90625 293.222656 111.6875 293.222656 L 263.3125 293.222656 C 286.09375 293.222656 304.5625 274.753906 304.5625 251.972656 L 304.5625 100.351562 C 304.5625 77.570312 286.09375 59.101562 263.3125 59.101562 L 111.6875 59.101562 C 88.90625 59.101562 70.4375 77.570312 70.4375 100.351562 Z M 70.4375 100.351562 " clip-rule="nonzero"/></clipPath><clipPath id="eac1341864"><path d="M 112.589844 60 L 262.410156 60 C 285.191406 60 303.660156 78.46875 303.660156 101.25 L 303.660156 251.074219 C 303.660156 273.855469 285.191406 292.324219 262.410156 292.324219 L 112.589844 292.324219 C 89.808594 292.324219 71.339844 273.855469 71.339844 251.074219 L 71.339844 101.25 C 71.339844 78.46875 89.808594 60 112.589844 60 Z M 112.589844 60 " clip-rule="nonzero"/></clipPath><clipPath id="1d7b93101b"><path d="M 71.1875 60 L 303.6875 60 L 303.6875 292.351562 L 71.1875 292.351562 Z M 71.1875 60 " clip-rule="nonzero"/></clipPath><clipPath id="37059c451d"><path d="M 70.4375 100.351562 L 70.4375 251.972656 C 70.4375 274.753906 88.90625 293.222656 111.6875 293.222656 L 263.3125 293.222656 C 286.09375 293.222656 304.5625 274.753906 304.5625 251.972656 L 304.5625 100.351562 C 304.5625 77.570312 286.09375 59.101562 263.3125 59.101562 L 111.6875 59.101562 C 88.90625 59.101562 70.4375 77.570312 70.4375 100.351562 Z M 70.4375 100.351562 " clip-rule="nonzero"/></clipPath><clipPath id="dace0a3f9a"><path d="M 112.589844 60 L 262.410156 60 C 285.191406 60 303.660156 78.46875 303.660156 101.25 L 303.660156 251.074219 C 303.660156 273.855469 285.191406 292.324219 262.410156 292.324219 L 112.589844 292.324219 C 89.808594 292.324219 71.339844 273.855469 71.339844 251.074219 L 71.339844 101.25 C 71.339844 78.46875 89.808594 60 112.589844 60 Z M 112.589844 60 " clip-rule="nonzero"/></clipPath><clipPath id="e657b8edf2"><path d="M 70.4375 59.101562 L 304.4375 59.101562 L 304.4375 293.101562 L 70.4375 293.101562 Z M 70.4375 59.101562 " clip-rule="nonzero"/></clipPath><clipPath id="956ebc6351"><path d="M 70.4375 100.351562 L 70.4375 251.972656 C 70.4375 274.753906 88.90625 293.222656 111.6875 293.222656 L 263.3125 293.222656 C 286.09375 293.222656 304.5625 274.753906 304.5625 251.972656 L 304.5625 100.351562 C 304.5625 77.570312 286.09375 59.101562 263.3125 59.101562 L 111.6875 59.101562 C 88.90625 59.101562 70.4375 77.570312 70.4375 100.351562 Z M 70.4375 100.351562 " clip-rule="nonzero"/></clipPath><clipPath id="de32f4cc14"><path d="M 70.4375 100.351562 L 70.4375 251.96875 C 70.4375 274.75 88.90625 293.21875 111.6875 293.21875 L 263.308594 293.21875 C 286.089844 293.21875 304.554688 274.75 304.554688 251.96875 L 304.554688 100.351562 C 304.554688 77.570312 286.089844 59.101562 263.308594 59.101562 L 111.6875 59.101562 C 88.90625 59.101562 70.4375 77.570312 70.4375 100.351562 Z M 70.4375 100.351562 " clip-rule="nonzero"/></clipPath></defs><g clip-path="url(#5daf696128)"><g clip-path="url(#8f52af09ec)"><g clip-path="url(#eac1341864)"><path fill="#FFD058" d="M 297.039062 243.574219 C 297.039062 266.835938 278.175781 285.703125 254.90625 285.703125 L 120.082031 285.703125 C 96.816406 285.703125 77.953125 266.832031 77.953125 243.574219 L 77.953125 108.746094 C 77.953125 85.476562 96.820312 66.617188 120.082031 66.617188 L 254.910156 66.617188 C 278.179688 66.617188 297.039062 85.480469 297.039062 108.746094 Z M 297.039062 243.574219 " fill-opacity="1" fill-rule="nonzero"/></g></g></g><g clip-path="url(#1d7b93101b)"><g clip-path="url(#37059c451d)"><g clip-path="url(#dace0a3f9a)"><path fill="#FFD058" d="M 254.910156 293.214844 L 120.082031 293.214844 C 92.710938 293.214844 70.441406 270.945312 70.441406 243.574219 L 70.441406 108.746094 C 70.441406 81.375 92.710938 59.101562 120.082031 59.101562 L 254.910156 59.101562 C 282.28125 59.101562 304.554688 81.375 304.554688 108.75 L 304.554688 243.574219 C 304.550781 270.945312 282.28125 293.214844 254.910156 293.214844 Z M 120.082031 74.140625 C 100.996094 74.140625 85.464844 89.667969 85.464844 108.75 L 85.464844 243.574219 C 85.464844 262.667969 101 278.191406 120.082031 278.191406 L 254.910156 278.191406 C 274 278.191406 289.527344 262.664062 289.527344 243.574219 L 289.527344 108.746094 C 289.527344 89.660156 274 74.136719 254.910156 74.136719 L 120.082031 74.136719 Z M 120.082031 74.140625 " fill-opacity="1" fill-rule="nonzero"/></g></g></g><g clip-path="url(#e657b8edf2)"><g clip-path="url(#956ebc6351)"><g clip-path="url(#de32f4cc14)"><path stroke-linecap="butt" transform="matrix(0.75, 0, 0, 0.75, 70.438807, 59.101275)" fill="none" stroke-linejoin="miter" d="M -0.00174277 55.000387 L -0.00174277 257.15665 C -0.00174277 287.531652 24.623259 312.156653 54.998261 312.156653 L 257.159732 312.156653 C 287.534734 312.156653 312.154528 287.531652 312.154528 257.15665 L 312.154528 55.000387 C 312.154528 24.625385 287.534734 0.000382908 257.159732 0.000382908 L 54.998261 0.000382908 C 24.623259 0.000382908 -0.00174277 24.625385 -0.00174277 55.000387 Z M -0.00174277 55.000387 " stroke="#000000" stroke-width="10" stroke-opacity="1" stroke-miterlimit="4"/></g></g></g><g fill="#000000" fill-opacity="1"><g transform="translate(95.048333, 170.999989)"><g><path d="M 52.636719 -43.671875 C 54.914062 -41.660156 56.703125 -39.238281 58.007812 -36.410156 C 59.324219 -33.558594 59.984375 -30.515625 59.984375 -27.289062 L 59.984375 -18.191406 C 59.984375 -14.101562 58.972656 -10.367188 56.953125 -6.984375 C 54.96875 -3.660156 52.3125 -1.003906 48.984375 0.984375 C 45.605469 3.003906 41.867188 4.011719 37.777344 4.011719 L -0.265625 4.011719 L -0.265625 -78.925781 L 33.28125 -78.925781 C 37.375 -78.925781 41.109375 -77.914062 44.492188 -75.894531 C 47.828125 -73.902344 50.472656 -71.234375 52.425781 -67.894531 C 54.394531 -64.523438 55.382812 -60.796875 55.382812 -56.71875 L 55.382812 -47.621094 C 55.382812 -44.660156 54.8125 -41.824219 53.679688 -39.113281 L 49.976562 -40.667969 Z M 47.316406 -37.660156 L 45.164062 -39.566406 L 46.277344 -42.21875 C 46.996094 -43.933594 47.355469 -45.734375 47.355469 -47.621094 L 47.355469 -56.71875 C 47.355469 -59.347656 46.734375 -61.722656 45.496094 -63.84375 C 44.238281 -65.996094 42.53125 -67.71875 40.375 -69.003906 C 38.261719 -70.269531 35.898438 -70.898438 33.28125 -70.898438 L 3.746094 -70.898438 L 3.746094 -74.914062 L 7.757812 -74.914062 L 7.757812 0 L 3.746094 0 L 3.746094 -4.011719 L 37.777344 -4.011719 C 40.390625 -4.011719 42.757812 -4.644531 44.867188 -5.90625 C 47.035156 -7.203125 48.769531 -8.933594 50.0625 -11.101562 C 51.324219 -13.214844 51.957031 -15.578125 51.957031 -18.191406 L 51.957031 -27.289062 C 51.957031 -29.339844 51.546875 -31.261719 50.722656 -33.046875 C 49.886719 -34.855469 48.753906 -36.390625 47.316406 -37.660156 Z M 25.953125 -56.71875 L 25.953125 -45.375 L 21.9375 -45.375 L 21.9375 -49.386719 L 33.28125 -49.386719 L 33.28125 -45.375 L 29.269531 -45.375 L 29.269531 -56.71875 L 33.28125 -56.71875 L 33.28125 -52.707031 L 21.9375 -52.707031 L 21.9375 -56.71875 Z M 17.925781 -60.734375 L 37.296875 -60.734375 L 37.296875 -41.363281 L 17.925781 -41.363281 Z M 21.9375 -22.207031 L 37.777344 -22.207031 L 37.777344 -18.191406 L 33.765625 -18.191406 L 33.765625 -27.289062 L 37.777344 -27.289062 L 37.777344 -23.277344 L 21.9375 -23.277344 L 21.9375 -27.289062 L 25.953125 -27.289062 L 25.953125 -18.191406 L 21.9375 -18.191406 Z M 17.925781 -14.179688 L 17.925781 -31.300781 L 41.789062 -31.300781 L 41.789062 -14.179688 Z M 17.925781 -14.179688 "/></g></g></g><g fill="#000000" fill-opacity="1"><g transform="translate(157.973623, 170.999989)"><g><path d="M 36.921875 -78.925781 C 41.011719 -78.925781 44.75 -77.914062 48.128906 -75.894531 C 51.453125 -73.910156 54.109375 -71.253906 56.097656 -67.925781 C 58.117188 -64.546875 59.128906 -60.8125 59.128906 -56.71875 L 59.128906 -18.191406 C 59.128906 -14.101562 58.117188 -10.367188 56.097656 -6.984375 C 54.109375 -3.660156 51.453125 -1.003906 48.128906 0.984375 C 44.75 3.003906 41.011719 4.011719 36.921875 4.011719 L 21.082031 4.011719 C 16.992188 4.011719 13.253906 3.003906 9.875 0.984375 C 6.546875 -1.003906 3.890625 -3.660156 1.90625 -6.984375 C -0.113281 -10.367188 -1.125 -14.101562 -1.125 -18.191406 L -1.125 -56.71875 C -1.125 -60.8125 -0.113281 -64.546875 1.90625 -67.925781 C 3.890625 -71.253906 6.546875 -73.910156 9.875 -75.894531 C 13.253906 -77.914062 16.992188 -78.925781 21.082031 -78.925781 Z M 36.921875 -70.898438 L 21.082031 -70.898438 C 18.46875 -70.898438 16.105469 -70.269531 13.992188 -69.003906 C 11.824219 -67.710938 10.089844 -65.980469 8.796875 -63.8125 C 7.535156 -61.699219 6.902344 -59.335938 6.902344 -56.71875 L 6.902344 -18.191406 C 6.902344 -15.578125 7.535156 -13.214844 8.796875 -11.101562 C 10.089844 -8.933594 11.824219 -7.203125 13.992188 -5.90625 C 16.105469 -4.644531 18.46875 -4.011719 21.082031 -4.011719 L 36.921875 -4.011719 C 39.535156 -4.011719 41.898438 -4.644531 44.011719 -5.90625 C 46.179688 -7.203125 47.914062 -8.933594 49.207031 -11.101562 C 50.46875 -13.214844 51.101562 -15.578125 51.101562 -18.191406 L 51.101562 -56.71875 C 51.101562 -59.335938 50.46875 -61.699219 49.207031 -63.8125 C 47.914062 -65.980469 46.179688 -67.710938 44.011719 -69.003906 C 41.898438 -70.269531 39.535156 -70.898438 36.921875 -70.898438 Z M 21.082031 -22.207031 L 36.921875 -22.207031 L 36.921875 -18.191406 L 32.90625 -18.191406 L 32.90625 -56.71875 L 36.921875 -56.71875 L 36.921875 -52.707031 L 21.082031 -52.707031 L 21.082031 -56.71875 L 25.09375 -56.71875 L 25.09375 -18.191406 L 21.082031 -18.191406 Z M 17.070312 -14.179688 L 17.070312 -60.734375 L 40.933594 -60.734375 L 40.933594 -14.179688 Z M 17.070312 -14.179688 "/></g></g></g><g fill="#000000" fill-opacity="1"><g transform="translate(221.326978, 170.999989)"><g><path d="M 62.480469 -73.082031 L 41.828125 -35.625 L 38.3125 -37.5625 L 41.828125 -39.5 L 65.761719 3.90625 L 38.398438 3.90625 L 25.695312 -19.261719 L 29.214844 -21.191406 L 32.734375 -19.261719 L 20.035156 3.90625 L -7.332031 3.90625 L 16.605469 -39.5 L 20.121094 -37.5625 L 16.605469 -35.625 L -7.332031 -79.03125 L 20.027344 -79.03125 L 32.730469 -55.980469 L 29.214844 -54.042969 L 25.703125 -55.980469 L 33.726562 -70.535156 C 35.238281 -73.183594 37.261719 -75.257812 39.796875 -76.757812 C 42.355469 -78.273438 45.140625 -79.03125 48.15625 -79.03125 L 65.761719 -79.03125 Z M 55.453125 -76.957031 L 58.964844 -75.019531 L 58.964844 -71.007812 L 48.15625 -71.007812 C 46.609375 -71.007812 45.183594 -70.621094 43.890625 -69.855469 C 42.570312 -69.074219 41.527344 -68.007812 40.757812 -66.660156 L 29.214844 -45.730469 L 14.144531 -73.082031 L 17.65625 -75.019531 L 17.65625 -71.007812 L -0.535156 -71.007812 L -0.535156 -75.019531 L 2.980469 -76.957031 L 24.703125 -37.5625 L 2.980469 1.832031 L -0.535156 -0.105469 L -0.535156 -4.121094 L 17.65625 -4.121094 L 17.65625 -0.105469 L 14.140625 -2.035156 L 29.214844 -29.539062 L 44.292969 -2.035156 L 40.773438 -0.105469 L 40.773438 -4.121094 L 58.964844 -4.121094 L 58.964844 -0.105469 L 55.453125 1.832031 L 33.730469 -37.5625 Z M 55.453125 -76.957031 "/></g></g></g><g fill="#000000" fill-opacity="1"><g transform="translate(95.048333, 262.499983)"><g><path d="M 33.28125 -78.925781 C 37.375 -78.925781 41.109375 -77.914062 44.492188 -75.894531 C 47.828125 -73.902344 50.472656 -71.234375 52.425781 -67.894531 C 54.394531 -64.523438 55.382812 -60.796875 55.382812 -56.71875 L 55.382812 -45.375 C 55.382812 -41.296875 54.394531 -37.574219 52.425781 -34.199219 C 50.464844 -30.847656 47.808594 -28.191406 44.457031 -26.234375 C 41.085938 -24.261719 37.359375 -23.277344 33.28125 -23.277344 L 21.9375 -23.277344 L 21.9375 -27.289062 L 25.953125 -27.289062 L 25.953125 4.011719 L -0.265625 4.011719 L -0.265625 -78.925781 Z M 33.28125 -70.898438 L 3.746094 -70.898438 L 3.746094 -74.914062 L 7.757812 -74.914062 L 7.757812 0 L 3.746094 0 L 3.746094 -4.011719 L 21.9375 -4.011719 L 21.9375 0 L 17.925781 0 L 17.925781 -31.300781 L 33.28125 -31.300781 C 35.910156 -31.300781 38.285156 -31.921875 40.40625 -33.164062 C 42.546875 -34.414062 44.246094 -36.109375 45.496094 -38.25 C 46.734375 -40.371094 47.355469 -42.746094 47.355469 -45.375 L 47.355469 -56.71875 C 47.355469 -59.347656 46.734375 -61.722656 45.496094 -63.84375 C 44.238281 -65.996094 42.53125 -67.71875 40.375 -69.003906 C 38.261719 -70.269531 35.898438 -70.898438 33.28125 -70.898438 Z M 21.9375 -49.386719 L 33.28125 -49.386719 L 33.28125 -45.375 L 29.269531 -45.375 L 29.269531 -56.71875 L 33.28125 -56.71875 L 33.28125 -52.707031 L 21.9375 -52.707031 L 21.9375 -56.71875 L 25.953125 -56.71875 L 25.953125 -45.375 L 21.9375 -45.375 Z M 17.925781 -41.363281 L 17.925781 -60.734375 L 37.296875 -60.734375 L 37.296875 -41.363281 Z M 17.925781 -41.363281 "/></g></g></g><g fill="#000000" fill-opacity="1"><g transform="translate(152.72986, 262.499983)"><g><path d="M 36.921875 -78.925781 C 41.011719 -78.925781 44.75 -77.914062 48.128906 -75.894531 C 51.453125 -73.910156 54.109375 -71.253906 56.097656 -67.925781 C 58.117188 -64.546875 59.128906 -60.8125 59.128906 -56.71875 L 59.128906 -18.191406 C 59.128906 -14.101562 58.117188 -10.367188 56.097656 -6.984375 C 54.109375 -3.660156 51.453125 -1.003906 48.128906 0.984375 C 44.75 3.003906 41.011719 4.011719 36.921875 4.011719 L 21.082031 4.011719 C 16.992188 4.011719 13.253906 3.003906 9.875 0.984375 C 6.546875 -1.003906 3.890625 -3.660156 1.90625 -6.984375 C -0.113281 -10.367188 -1.125 -14.101562 -1.125 -18.191406 L -1.125 -56.71875 C -1.125 -60.8125 -0.113281 -64.546875 1.90625 -67.925781 C 3.890625 -71.253906 6.546875 -73.910156 9.875 -75.894531 C 13.253906 -77.914062 16.992188 -78.925781 21.082031 -78.925781 Z M 36.921875 -70.898438 L 21.082031 -70.898438 C 18.46875 -70.898438 16.105469 -70.269531 13.992188 -69.003906 C 11.824219 -67.710938 10.089844 -65.980469 8.796875 -63.8125 C 7.535156 -61.699219 6.902344 -59.335938 6.902344 -56.71875 L 6.902344 -18.191406 C 6.902344 -15.578125 7.535156 -13.214844 8.796875 -11.101562 C 10.089844 -8.933594 11.824219 -7.203125 13.992188 -5.90625 C 16.105469 -4.644531 18.46875 -4.011719 21.082031 -4.011719 L 36.921875 -4.011719 C 39.535156 -4.011719 41.898438 -4.644531 44.011719 -5.90625 C 46.179688 -7.203125 47.914062 -8.933594 49.207031 -11.101562 C 50.46875 -13.214844 51.101562 -15.578125 51.101562 -18.191406 L 51.101562 -56.71875 C 51.101562 -59.335938 50.46875 -61.699219 49.207031 -63.8125 C 47.914062 -65.980469 46.179688 -67.710938 44.011719 -69.003906 C 41.898438 -70.269531 39.535156 -70.898438 36.921875 -70.898438 Z M 21.082031 -22.207031 L 36.921875 -22.207031 L 36.921875 -18.191406 L 32.90625 -18.191406 L 32.90625 -56.71875 L 36.921875 -56.71875 L 36.921875 -52.707031 L 21.082031 -52.707031 L 21.082031 -56.71875 L 25.09375 -56.71875 L 25.09375 -18.191406 L 21.082031 -18.191406 Z M 17.070312 -14.179688 L 17.070312 -60.734375 L 40.933594 -60.734375 L 40.933594 -14.179688 Z M 17.070312 -14.179688 "/></g></g></g><g fill="#000000" fill-opacity="1"><g transform="translate(216.083215, 262.499983)"><g><path d="M 62.480469 -73.082031 L 41.828125 -35.625 L 38.3125 -37.5625 L 41.828125 -39.5 L 65.761719 3.90625 L 38.398438 3.90625 L 25.695312 -19.261719 L 29.214844 -21.191406 L 32.734375 -19.261719 L 20.035156 3.90625 L -7.332031 3.90625 L 16.605469 -39.5 L 20.121094 -37.5625 L 16.605469 -35.625 L -7.332031 -79.03125 L 20.027344 -79.03125 L 32.730469 -55.980469 L 29.214844 -54.042969 L 25.703125 -55.980469 L 33.726562 -70.535156 C 35.238281 -73.183594 37.261719 -75.257812 39.796875 -76.757812 C 42.355469 -78.273438 45.140625 -79.03125 48.15625 -79.03125 L 65.761719 -79.03125 Z M 55.453125 -76.957031 L 58.964844 -75.019531 L 58.964844 -71.007812 L 48.15625 -71.007812 C 46.609375 -71.007812 45.183594 -70.621094 43.890625 -69.855469 C 42.570312 -69.074219 41.527344 -68.007812 40.757812 -66.660156 L 29.214844 -45.730469 L 14.144531 -73.082031 L 17.65625 -75.019531 L 17.65625 -71.007812 L -0.535156 -71.007812 L -0.535156 -75.019531 L 2.980469 -76.957031 L 24.703125 -37.5625 L 2.980469 1.832031 L -0.535156 -0.105469 L -0.535156 -4.121094 L 17.65625 -4.121094 L 17.65625 -0.105469 L 14.140625 -2.035156 L 29.214844 -29.539062 L 44.292969 -2.035156 L 40.773438 -0.105469 L 40.773438 -4.121094 L 58.964844 -4.121094 L 58.964844 -0.105469 L 55.453125 1.832031 L 33.730469 -37.5625 Z M 55.453125 -76.957031 "/></g></g></g><g fill="#f5f5f5" fill-opacity="1"><g transform="translate(95.048333, 170.999989)"><g><path d="M 49.96875 -40.671875 C 51.832031 -39.023438 53.296875 -37.039062 54.359375 -34.71875 C 55.429688 -32.40625 55.96875 -29.925781 55.96875 -27.28125 L 55.96875 -18.1875 C 55.96875 -14.832031 55.144531 -11.78125 53.5 -9.03125 C 51.863281 -6.289062 49.671875 -4.097656 46.921875 -2.453125 C 44.179688 -0.816406 41.132812 0 37.78125 0 L 3.75 0 L 3.75 -74.90625 L 33.28125 -74.90625 C 36.632812 -74.90625 39.679688 -74.082031 42.421875 -72.4375 C 45.171875 -70.800781 47.347656 -68.609375 48.953125 -65.859375 C 50.566406 -63.117188 51.375 -60.070312 51.375 -56.71875 L 51.375 -47.625 C 51.375 -45.195312 50.90625 -42.878906 49.96875 -40.671875 Z M 21.9375 -56.71875 L 21.9375 -45.375 L 33.28125 -45.375 L 33.28125 -56.71875 Z M 21.9375 -18.1875 L 37.78125 -18.1875 L 37.78125 -27.28125 L 21.9375 -27.28125 Z M 21.9375 -18.1875 "/></g></g></g><g fill="#f5f5f5" fill-opacity="1"><g transform="translate(157.973623, 170.999989)"><g><path d="M 36.921875 -74.90625 C 40.273438 -74.90625 43.320312 -74.082031 46.0625 -72.4375 C 48.8125 -70.800781 51.003906 -68.609375 52.640625 -65.859375 C 54.285156 -63.117188 55.109375 -60.070312 55.109375 -56.71875 L 55.109375 -18.1875 C 55.109375 -14.832031 54.285156 -11.78125 52.640625 -9.03125 C 51.003906 -6.289062 48.8125 -4.097656 46.0625 -2.453125 C 43.320312 -0.816406 40.273438 0 36.921875 0 L 21.078125 0 C 17.722656 0 14.671875 -0.816406 11.921875 -2.453125 C 9.179688 -4.097656 6.988281 -6.289062 5.34375 -9.03125 C 3.707031 -11.78125 2.890625 -14.832031 2.890625 -18.1875 L 2.890625 -56.71875 C 2.890625 -60.070312 3.707031 -63.117188 5.34375 -65.859375 C 6.988281 -68.609375 9.179688 -70.800781 11.921875 -72.4375 C 14.671875 -74.082031 17.722656 -74.90625 21.078125 -74.90625 Z M 21.078125 -18.1875 L 36.921875 -18.1875 L 36.921875 -56.71875 L 21.078125 -56.71875 Z M 21.078125 -18.1875 "/></g></g></g><g fill="#f5f5f5" fill-opacity="1"><g transform="translate(221.326978, 170.999989)"><g><path d="M 58.96875 -75.015625 L 38.3125 -37.5625 L 58.96875 -0.109375 L 40.765625 -0.109375 L 29.21875 -21.1875 L 17.65625 -0.109375 L -0.53125 -0.109375 L 20.125 -37.5625 L -0.53125 -75.015625 L 17.65625 -75.015625 L 29.21875 -54.046875 L 37.234375 -68.59375 C 38.378906 -70.59375 39.914062 -72.160156 41.84375 -73.296875 C 43.769531 -74.441406 45.875 -75.015625 48.15625 -75.015625 Z M 58.96875 -75.015625 "/></g></g></g><g fill="#f5f5f5" fill-opacity="1"><g transform="translate(95.048333, 262.499983)"><g><path d="M 33.28125 -74.90625 C 36.632812 -74.90625 39.679688 -74.082031 42.421875 -72.4375 C 45.171875 -70.800781 47.347656 -68.609375 48.953125 -65.859375 C 50.566406 -63.117188 51.375 -60.070312 51.375 -56.71875 L 51.375 -45.375 C 51.375 -42.019531 50.566406 -38.96875 48.953125 -36.21875 C 47.347656 -33.476562 45.171875 -31.300781 42.421875 -29.6875 C 39.679688 -28.082031 36.632812 -27.28125 33.28125 -27.28125 L 21.9375 -27.28125 L 21.9375 0 L 3.75 0 L 3.75 -74.90625 Z M 21.9375 -45.375 L 33.28125 -45.375 L 33.28125 -56.71875 L 21.9375 -56.71875 Z M 21.9375 -45.375 "/></g></g></g><g fill="#f5f5f5" fill-opacity="1"><g transform="translate(152.72986, 262.499983)"><g><path d="M 36.921875 -74.90625 C 40.273438 -74.90625 43.320312 -74.082031 46.0625 -72.4375 C 48.8125 -70.800781 51.003906 -68.609375 52.640625 -65.859375 C 54.285156 -63.117188 55.109375 -60.070312 55.109375 -56.71875 L 55.109375 -18.1875 C 55.109375 -14.832031 54.285156 -11.78125 52.640625 -9.03125 C 51.003906 -6.289062 48.8125 -4.097656 46.0625 -2.453125 C 43.320312 -0.816406 40.273438 0 36.921875 0 L 21.078125 0 C 17.722656 0 14.671875 -0.816406 11.921875 -2.453125 C 9.179688 -4.097656 6.988281 -6.289062 5.34375 -9.03125 C 3.707031 -11.78125 2.890625 -14.832031 2.890625 -18.1875 L 2.890625 -56.71875 C 2.890625 -60.070312 3.707031 -63.117188 5.34375 -65.859375 C 6.988281 -68.609375 9.179688 -70.800781 11.921875 -72.4375 C 14.671875 -74.082031 17.722656 -74.90625 21.078125 -74.90625 Z M 21.078125 -18.1875 L 36.921875 -18.1875 L 36.921875 -56.71875 L 21.078125 -56.71875 Z M 21.078125 -18.1875 "/></g></g></g><g fill="#f5f5f5" fill-opacity="1"><g transform="translate(216.083215, 262.499983)"><g><path d="M 58.96875 -75.015625 L 38.3125 -37.5625 L 58.96875 -0.109375 L 40.765625 -0.109375 L 29.21875 -21.1875 L 17.65625 -0.109375 L -0.53125 -0.109375 L 20.125 -37.5625 L -0.53125 -75.015625 L 17.65625 -75.015625 L 29.21875 -54.046875 L 37.234375 -68.59375 C 38.378906 -70.59375 39.914062 -72.160156 41.84375 -73.296875 C 43.769531 -74.441406 45.875 -75.015625 48.15625 -75.015625 Z M 58.96875 -75.015625 "/></g></g></g></svg>